PathFileType	4	(x/y/z)	S02_P20_T16
DataRate	CameraRate	NumFrames	NumMarkers	Units	OrigDataRate	OrigDataStartFrame	OrigNumFrames
240	240	8	51	mm	240	129	342
Frame#	Time	Sternum			R.Acromium			L.Acromium			Top.Head			R.ASIS			L.ASIS			R.PSIS			L.PSIS			R.Great.Tro			L.Great.Tro			R.Iliac.Crest			L.Iliac.Crest			V.Sacral			R.Thigh.Upper.Post			R.Thigh.Lower.Ant			R.Thigh.Lower.Post			R.Thigh.Upper.Ant			R.Knee.Lat			R.Knee.Med			R.Shank.Upper.Post			R.Shank.Lower.Ant			R.Shank.Lower.Post			R.Shank.Upper.Ant			R.Ankle.Lat			R.Ankle.Med			R.Heel.Upper			R.Heel.Med			R.Heel.Lat			R.Toe.Lat			R.Toe.Med			R.Toe.Tip			L.Thigh.Upper.Post			L.Thigh.Lower.Ant			L.Thigh.Lower.Post			L.Thigh.Upper.Ant			L.Knee.Lat			L.Knee.Med			L.Shank.Upper.Post			L.Shank.Lower.Ant			L.Shank.Lower.Post			L.Shank.Upper.Ant			L.Ankle.Lat			L.Ankle.Med			L.Heel.Upper			L.Heel.Med			L.Heel.Lat			L.Toe.Lat			L.Toe.Med			L.Toe.Tip			Cervical.Spine			Back			
		X1	Y1	Z1	X2	Y2	Z2	X3	Y3	Z3	X4	Y4	Z4	X5	Y5	Z5	X6	Y6	Z6	X7	Y7	Z7	X8	Y8	Z8	X9	Y9	Z9	X10	Y10	Z10	X11	Y11	Z11	X12	Y12	Z12	X13	Y13	Z13	X14	Y14	Z14	X15	Y15	Z15	X16	Y16	Z16	X17	Y17	Z17	X18	Y18	Z18	X19	Y19	Z19	X20	Y20	Z20	X21	Y21	Z21	X22	Y22	Z22	X23	Y23	Z23	X24	Y24	Z24	X25	Y25	Z25	X26	Y26	Z26	X27	Y27	Z27	X28	Y28	Z28	X29	Y29	Z29	X30	Y30	Z30	X31	Y31	Z31	X32	Y32	Z32	X33	Y33	Z33	X34	Y34	Z34	X35	Y35	Z35	X36	Y36	Z36	X37	Y37	Z37	X38	Y38	Z38	X39	Y39	Z39	X40	Y40	Z40	X41	Y41	Z41	X42	Y42	Z42	X43	Y43	Z43	X44	Y44	Z44	X45	Y45	Z45	X46	Y46	Z46	X47	Y47	Z47	X48	Y48	Z48	X49	Y49	Z49	X50	Y50	Z50	X51	Y51	Z51	

129	0.53333	-508.31	1068	322.6	-629.8	1304.1	463.91	-608.51	1308.3	170.5	-558.78	1595.3	320.46	-540.27	903.47	416.8	-539.08	881.21	205.02	-756.45	936.55	366.99	-763.12	937.58	293.94	-589.86	799.07	509.96	-681.43	802.35	123.47	-640.65	950.52	476.97	-662	933.9	141.05	-783.56	887.94	327.61	-508.45	607.52	487.33	-431	556.85	443.42	-491.02	521.26	464.64	-452.74	642	463.75	-446.66	456.97	444.25	-458.56	448.78	302.73	-526.17	252.75	431.56	-455.48	170.91	407.22	-521.69	180.12	420.13	-454.99	239.24	425.02	-513.24	89.154	403.93	-504.73	99.17	319.61	-573.44	72.511	348.31	-558.05	40.454	321.78	-570.07	42.002	384.98	-409.05	40.508	430.21	-373.31	31.884	323.8	-326.63	60.059	379.96	-735.12	583.67	158.64	-670.93	493.93	149.75	-746.14	494.99	177.31	-666.54	588.14	134.44	-707.88	418.15	157.13	-696.27	408.43	293.86	-881.85	340.16	166	-890.1	230.19	173.15	-933.19	287.7	181.99	-842.77	289.33	158.7	-990.41	182.54	190.27	-981.39	173.17	270.52	-1055.3	196.78	226.16	-1063.8	175.85	262.61	-1071.9	171.63	201.03	-962.52	53.771	170.69	-936.9	56.703	278.46	-884.62	43.553	233.7	-695.66	1371.3	313.74	-768.88	1117.8	305.21
130	0.5375	-502.62	1068.8	323.03	-623.54	1304.7	464.64	-603.24	1309	171.28	-553.11	1595.9	321.41	-534.52	904.71	417.46	-533.36	881.94	205.79	-750.67	937.12	367	-757.2	937.98	293.92	-584.29	799.96	510.59	-675.01	801.87	123.98	-635.16	951.39	477.22	-655.95	934.52	141.45	-777.69	888.37	327.69	-504.03	607.53	487.84	-426.88	556.36	444.01	-487.17	521.2	465.11	-448.02	641.64	464.44	-443.34	456.5	444.63	-454.52	448.7	303.17	-524.32	252.89	431.9	-454.4	170.41	407.3	-520.52	180.21	420.42	-453.25	238.73	425.18	-513.15	89.204	404	-504.63	99.218	319.71	-573.45	72.633	348.41	-558.12	40.575	321.84	-570.14	42.067	385.02	-409.1	40.456	430.27	-373.35	31.813	323.8	-326.62	59.849	380.01	-726.54	582.56	158.8	-661.36	493.6	149.21	-736.49	493.69	177.15	-658.09	587.92	134.32	-697.72	417.64	156.33	-684.83	407.32	293.02	-872.36	342.39	166.11	-882.56	232.55	172.88	-924.55	290.74	182.26	-834.59	291.01	158.27	-983.31	186.61	190.37	-973.91	176.9	270.51	-1047	203.16	226.63	-1056.2	182.76	263.31	-1064.8	178.72	201.67	-960.17	56.621	170.86	-933.72	58.554	278.37	-882.7	42.894	233.31	-689.93	1371.9	314.77	-763.17	1118.4	306.15
131	0.54167	-496.95	1069.6	323.45	-617.28	1305.3	465.34	-598	1309.8	172.05	-547.43	1596.5	322.35	-528.82	906	418.1	-527.68	882.73	206.52	-744.92	937.75	367.02	-751.33	938.45	293.92	-578.76	800.86	511.21	-668.63	801.45	124.52	-629.71	952.31	477.48	-649.98	935.15	141.86	-771.87	888.87	327.78	-499.78	607.53	488.36	-422.95	555.79	444.63	-483.55	521.11	465.6	-443.44	641.2	465.14	-440.33	455.98	445.07	-450.86	448.48	303.66	-522.62	252.97	432.24	-453.42	169.91	407.42	-519.44	180.26	420.71	-451.66	238.21	425.38	-513.07	89.24	404.09	-504.54	99.268	319.82	-573.46	72.734	348.51	-558.19	40.685	321.9	-570.19	42.11	385.08	-409.15	40.412	430.34	-373.37	31.781	323.82	-326.61	59.688	380.07	-717.92	581.51	158.92	-651.74	493.37	148.62	-726.77	492.46	176.95	-649.62	587.79	134.16	-687.47	417.2	155.51	-673.19	406.29	292.14	-862.64	344.67	166.25	-874.73	234.96	172.64	-915.65	293.82	182.55	-826.22	292.76	157.85	-975.89	190.72	190.5	-966.1	180.66	270.53	-1038.3	209.52	227.15	-1048.2	189.66	264.07	-1057.3	185.83	202.36	-957.51	59.658	171.06	-930.16	60.543	278.26	-880.49	42.267	232.87	-684.21	1372.5	315.78	-757.47	1119.1	307.1
132	0.54583	-491.3	1070.5	323.86	-611.02	1306	466.02	-592.8	1310.5	172.81	-541.75	1597.2	323.28	-523.15	907.34	418.73	-522.05	883.56	207.23	-739.19	938.42	367.06	-745.51	938.98	293.93	-573.28	801.78	511.83	-662.29	801.1	125.1	-624.28	953.27	477.76	-644.1	935.79	142.28	-766.09	889.43	327.89	-495.7	607.5	488.88	-419.22	555.15	445.27	-480.16	521	466.1	-439.01	640.71	465.86	-437.63	455.42	445.57	-447.61	448.15	304.2	-521.06	253.02	432.58	-452.53	169.43	407.56	-518.47	180.28	421	-450.19	237.69	425.61	-513	89.264	404.19	-504.45	99.321	319.94	-573.47	72.817	348.62	-558.24	40.783	321.97	-570.24	42.134	385.13	-409.18	40.373	430.42	-373.39	31.778	323.84	-326.61	59.568	380.15	-709.28	580.53	159	-642.1	493.23	148	-717.02	491.32	176.71	-641.14	587.73	133.95	-677.13	416.86	154.66	-661.38	405.36	291.24	-852.72	346.99	166.4	-866.6	237.42	172.44	-906.5	296.94	182.88	-817.68	294.6	157.44	-968.17	194.84	190.66	-957.96	184.41	270.59	-1029.3	215.84	227.73	-1039.8	196.51	264.88	-1049.4	192.92	203.11	-954.49	62.864	171.28	-926.19	62.658	278.14	-877.95	41.69	232.36	-678.5	1373.1	316.77	-751.78	1119.8	308.04
133	0.55	-485.66	1071.5	324.24	-604.77	1306.8	466.67	-587.64	1311.3	173.55	-536.07	1597.9	324.19	-517.51	908.7	419.35	-516.46	884.43	207.91	-733.49	939.14	367.12	-739.75	939.56	293.98	-567.83	802.72	512.44	-656	800.81	125.71	-618.85	954.26	478.06	-638.31	936.43	142.7	-760.35	890.05	328.03	-491.77	607.47	489.41	-415.68	554.46	445.93	-476.97	520.87	466.61	-434.73	640.18	466.58	-435.19	454.83	446.1	-444.76	447.7	304.77	-519.63	253.04	432.9	-451.73	168.95	407.73	-517.58	180.27	421.29	-448.86	237.18	425.87	-512.94	89.277	404.3	-504.36	99.378	320.07	-573.47	72.885	348.73	-558.28	40.873	322.03	-570.27	42.142	385.19	-409.21	40.338	430.5	-373.41	31.798	323.87	-326.61	59.481	380.23	-700.63	579.64	159.05	-632.45	493.2	147.34	-707.23	490.27	176.45	-632.67	587.77	133.71	-666.74	416.61	153.8	-649.41	404.56	290.33	-842.62	349.35	166.57	-858.19	239.91	172.27	-897.14	300.08	183.24	-808.98	296.5	157.04	-960.15	198.97	190.87	-949.51	188.16	270.7	-1019.9	222.08	228.35	-1031	203.27	265.74	-1041.1	199.94	203.91	-951.08	66.219	171.52	-921.79	64.885	278.01	-875.04	41.184	231.79	-672.81	1373.8	317.75	-746.11	1120.5	308.99
134	0.55417	-480.04	1072.5	324.61	-598.52	1307.6	467.29	-582.51	1312.2	174.26	-530.38	1598.6	325.08	-511.91	910.07	419.94	-510.91	885.33	208.55	-727.81	939.91	367.22	-734.03	940.21	294.06	-562.41	803.66	513.04	-649.76	800.6	126.35	-613.43	955.28	478.4	-632.61	937.06	143.12	-754.67	890.73	328.2	-488	607.43	489.94	-412.32	553.72	446.59	-473.99	520.73	467.14	-430.58	639.61	467.3	-432.99	454.22	446.66	-442.31	447.16	305.36	-518.33	253.03	433.22	-451.01	168.49	407.93	-516.78	180.24	421.58	-447.65	236.67	426.14	-512.89	89.281	404.41	-504.29	99.437	320.22	-573.48	72.94	348.85	-558.31	40.954	322.1	-570.3	42.139	385.25	-409.23	40.304	430.58	-373.42	31.835	323.9	-326.62	59.418	380.31	-691.98	578.83	159.08	-622.81	493.28	146.67	-697.43	489.33	176.17	-624.21	587.9	133.43	-656.3	416.48	152.94	-637.33	403.89	289.42	-832.34	351.74	166.78	-849.53	242.44	172.13	-887.56	303.23	183.64	-800.11	298.48	156.66	-951.85	203.09	191.11	-940.76	191.87	270.85	-1010.2	228.18	229.03	-1021.9	209.88	266.65	-1032.5	206.83	204.77	-947.24	69.695	171.78	-916.94	67.207	277.86	-871.72	40.768	231.17	-667.13	1374.5	318.71	-740.44	1121.3	309.93
135	0.55833	-474.44	1073.5	324.95	-592.28	1308.5	467.9	-577.42	1313.1	174.94	-524.69	1599.3	325.94	-506.34	911.42	420.51	-505.4	886.27	209.15	-722.16	940.73	367.35	-728.35	940.91	294.18	-557.03	804.61	513.63	-643.57	800.48	127.01	-608.01	956.32	478.77	-627.01	937.69	143.53	-749.03	891.48	328.41	-484.36	607.4	490.46	-409.13	552.96	447.26	-471.19	520.6	467.67	-426.58	639.01	468	-430.99	453.61	447.24	-440.24	446.54	305.96	-517.16	253	433.53	-450.37	168.04	408.14	-516.06	180.2	421.87	-446.56	236.18	426.43	-512.84	89.279	404.53	-504.21	99.5	320.36	-573.49	72.986	348.96	-558.33	41.03	322.17	-570.32	42.128	385.32	-409.24	40.272	430.66	-373.43	31.882	323.94	-326.63	59.376	380.39	-683.33	578.13	159.08	-613.19	493.47	145.98	-687.64	488.5	175.88	-615.78	588.13	133.14	-645.83	416.46	152.07	-625.16	403.39	288.51	-821.92	354.15	167.01	-840.63	244.99	172.02	-877.79	306.39	184.07	-791.07	300.52	156.3	-943.28	207.16	191.39	-931.72	195.53	271.04	-1000.3	234.13	229.75	-1012.4	216.3	267.61	-1023.6	213.55	205.69	-942.95	73.264	172.06	-911.6	69.604	277.71	-867.96	40.467	230.5	-661.47	1375.2	319.65	-734.79	1122.1	310.88
136	0.5625	-468.84	1074.6	325.26	-586.05	1309.4	468.47	-572.36	1314	175.59	-518.99	1600.1	326.78	-500.79	912.76	421.05	-499.93	887.23	209.7	-716.53	941.6	367.53	-722.72	941.66	294.34	-551.69	805.57	514.2	-637.45	800.44	127.69	-602.57	957.37	479.16	-621.51	938.32	143.94	-743.44	892.29	328.67	-480.85	607.38	490.97	-406.09	552.2	447.92	-468.54	520.48	468.2	-422.7	638.41	468.68	-429.16	453.02	447.82	-438.54	445.88	306.56	-516.09	252.95	433.81	-449.8	167.62	408.36	-515.42	180.14	422.14	-445.58	235.71	426.73	-512.81	89.271	404.65	-504.15	99.567	320.51	-573.5	73.025	349.06	-558.35	41.101	322.23	-570.33	42.113	385.38	-409.25	40.24	430.74	-373.44	31.937	323.97	-326.64	59.348	380.46	-674.71	577.54	159.08	-603.59	493.79	145.28	-677.84	487.81	175.59	-607.39	588.47	132.83	-635.34	416.58	151.21	-612.95	403.05	287.62	-811.36	356.58	167.27	-831.51	247.57	171.95	-867.84	309.53	184.54	-781.86	302.61	155.98	-934.46	211.17	191.72	-922.41	199.12	271.28	-990.05	239.86	230.53	-1002.6	222.46	268.6	-1014.3	220.05	206.67	-938.17	76.893	172.35	-905.75	72.052	277.54	-863.71	40.3	229.78	-655.83	1376	320.57	-729.15	1122.9	311.84
